stateDiagram-v2
	state "StorageDealUnknown" as 0
	state "StorageDealStaged" as 4
	state "StorageDealSealing" as 5
	state "<invalid Value>" as 6
	state "StorageDealActive" as 7
	state "StorageDealExpired" as 8
	state "StorageDealSlashed" as 9
	state "StorageDealRejecting" as 10
	state "StorageDealFailing" as 11
	state "StorageDealValidating" as 14
	state "StorageDealAcceptWait" as 15
	state "StorageDealTransferring" as 17
	state "StorageDealWaitingForData" as 18
	state "StorageDealVerifyData" as 19
	state "StorageDealEnsureProviderFunds" as 20
	state "StorageDealProviderFunding" as 22
	state "StorageDealPublish" as 24
	state "StorageDealPublishing" as 25
	state "StorageDealError" as 26
	4 : On entry runs HandoffDeal
	5 : On entry runs VerifyDealActivated
	6 : On entry runs RecordPieceInfo
	7 : On entry runs WaitForDealCompletion
	10 : On entry runs RejectDeal
	11 : On entry runs FailDeal
	14 : On entry runs ValidateDealProposal
	15 : On entry runs DecideOnProposal
	19 : On entry runs VerifyData
	20 : On entry runs EnsureProviderFunds
	22 : On entry runs WaitForFunding
	24 : On entry runs PublishDeal
	25 : On entry runs WaitForPublish
	[*] --> 0
	note right of 0
		The following events are not shown cause they can trigger from any state.

		ProviderEventNodeErrored - transitions state to StorageDealFailing
		ProviderEventRestart - does not transition state
	end note
	0 --> 14 : ProviderEventOpen
	14 --> 10 : ProviderEventDealRejected
	15 --> 10 : ProviderEventDealRejected
	19 --> 10 : ProviderEventDealRejected
	10 --> 11 : ProviderEventRejectionSent
	14 --> 15 : ProviderEventDealDeciding
	15 --> 18 : ProviderEventDataRequested
	17 --> 11 : ProviderEventDataTransferFailed
	18 --> 17 : ProviderEventDataTransferInitiated
	17 --> 19 : ProviderEventDataTransferCompleted
	19 --> 11 : ProviderEventDataVerificationFailed
	18 --> 20 : ProviderEventVerifiedData
	19 --> 20 : ProviderEventVerifiedData
	20 --> 22 : ProviderEventFundingInitiated
	20 --> 24 : ProviderEventFunded
	22 --> 24 : ProviderEventFunded
	24 --> 25 : ProviderEventDealPublishInitiated
	25 --> 11 : ProviderEventDealPublishError
	10 --> 11 : ProviderEventSendResponseFailed
	15 --> 11 : ProviderEventSendResponseFailed
	25 --> 4 : ProviderEventDealPublished
	4 --> 11 : ProviderEventFileStoreErrored
	5 --> 11 : ProviderEventFileStoreErrored
	7 --> 11 : ProviderEventFileStoreErrored
	4 --> 11 : ProviderEventDealHandoffFailed
	4 --> 5 : ProviderEventDealHandedOff
	5 --> 11 : ProviderEventDealActivationFailed
	5 --> 6 : ProviderEventDealActivated
	6 --> 11 : ProviderEventPieceStoreErrored
	6 --> 11 : ProviderEventUnableToLocatePiece
	6 --> 11 : ProviderEventReadMetadataErrored
	6 --> 7 : ProviderEventPieceRecorded
	7 --> 9 : ProviderEventDealSlashed
	7 --> 8 : ProviderEventDealExpired
	7 --> 26 : ProviderEventDealCompletionFailed
	11 --> 26 : ProviderEventFailed
	10 --> 26 : ProviderEventRestart
	14 --> 26 : ProviderEventRestart
	15 --> 26 : ProviderEventRestart
	20 --> 11 : ProviderEventTrackFundsFailed
	26 --> [*]
	9 --> [*]
	8 --> [*]
